<svg width="32" height="32" viewBox="0 0 32 32" fill="none" xmlns="http://www.w3.org/2000/svg">
  <rect width="32" height="32" rx="8" fill="#000000"/>
  <path d="M16.5 8C14.1131 8 12 10.1131 12 12.5C12 14.8869 14.1131 17 16.5 17C18.8869 17 21 14.8869 21 12.5C21 10.1131 18.8869 8 16.5 8Z" fill="#FB6B23"/>
  <path d="M22 19H11C9.34315 19 8 20.3431 8 22V24H25V22C25 20.3431 23.6569 19 22 19Z" fill="#FB6B23"/>
  <path d="M14.5 12.5C14.5 13.6046 13.6046 14.5 12.5 14.5C11.3954 14.5 10.5 13.6046 10.5 12.5C10.5 11.3954 11.3954 10.5 12.5 10.5C13.6046 10.5 14.5 11.3954 14.5 12.5Z" fill="#000000"/>
</svg> 